<svg width="50" height="50" viewBox="0 0 50 50" fill="none" xmlns="http://www.w3.org/2000/svg">
<g clip-path="url(#clip0_25_690)">
<path d="M39.5833 6.25C41.78 6.25 43.5795 7.94974 43.7386 10.1057L43.75 10.4167V39.5833C43.75 41.78 42.0503 43.5795 39.8943 43.7386L39.5833 43.75H10.4167C8.22008 43.75 6.42049 42.0503 6.26143 39.8943L6.25 39.5833V10.4167C6.25 8.22008 7.94974 6.42049 10.1057 6.26143L10.4167 6.25H39.5833ZM22.9167 31.25H10.4167V39.5833H22.9167V31.25ZM39.5833 31.25H27.0833V39.5833H39.5833V31.25ZM39.5833 20.8333H27.0833V27.0833H39.5833V20.8333ZM22.9167 20.8333H10.4167V27.0833H22.9167V20.8333ZM39.5833 10.4167H27.0833V16.6667H39.5833V10.4167ZM22.9167 10.4167H10.4167V16.6667H22.9167V10.4167Z" fill="#3477D5"/>
</g>
<defs>
<clipPath id="clip0_25_690">
<rect width="50" height="50" fill="white"/>
</clipPath>
</defs>
</svg>
